#!OML:ASF F:\VICON\USERDATA\INSTALL\rory3\rory3.ASF
:FULLY-SPECIFIED
:DEGREES
3172
root 0.264526 17.3143 -0.556537 7.17549 5.6076 -0.0844735
lowerback 10.1151 -0.225014 -2.49314
upperback 4.87434 -0.488044 1.35403
thorax -0.567661 -0.292579 2.85533
lowerneck 4.58908 -9.41982 -19.7068
upperneck 4.63352 -14.6472 24.4716
head 3.95622 -7.48418 10.4872
rclavicle 5.1684e-015 -1.31198e-014
rhumerus -15.2278 42.9699 -81.2648
rradius 83.7142
rwrist 34.3601
rhand -16.4966 21.1267
rfingers 7.12502
rthumb 9.72108 -8.62901
lclavicle 5.1684e-015 -1.31198e-014
lhumerus -189.976 -140.93 256.207
lradius 77.7221
lwrist -20.4242
lhand -13.997 20.9772
lfingers 7.12502
lthumb 12.132 50.6054
rfemur -14.7401 6.51513 16.9733
rtibia 21.9557
rfoot -12.8876 -13.0965
rtoes -14.39
lfemur -19.6979 -13.9622 -15.9053
ltibia 25.4509
lfoot -12.4155 4.67987
ltoes -20.3929
3173
root 0.267298 17.3121 -0.594901 7.48761 5.57408 -0.0502527
lowerback 10.4279 -0.193947 -2.42349
upperback 5.00823 -0.445736 1.37149
thorax -0.602527 -0.271485 2.83234
lowerneck 4.50671 -9.45509 -19.7724
upperneck 4.21437 -14.6348 24.6824
head 3.87187 -7.48245 10.5687
rclavicle 4.57205e-015 1.66979e-014
rhumerus -13.0059 43.4543 -79.606
rradius 85.3202
rwrist 34.5602
rhand -16.6531 21.3755
rfingers 7.12502
rthumb 9.57004 -8.38716
lclavicle 4.57205e-015 1.66979e-014
lhumerus -187.61 -139.67 254.502
lradius 79.1746
lwrist -19.7025
lhand -14.2358 20.9294
lfingers 7.12502
lthumb 11.9017 50.5711
rfemur -15.3968 6.3235 16.8581
rtibia 22.2168
rfoot -12.8212 -12.9123
rtoes -14.6798
lfemur -20.278 -13.9043 -15.8505
ltibia 25.5951
lfoot -12.3132 4.63581
ltoes -20.2853
3174
root 0.269352 17.3104 -0.632299 7.80566 5.60706 -0.0672909
lowerback 10.7386 -0.183447 -2.33434
upperback 5.07303 -0.427805 1.43015
thorax -0.705922 -0.260832 2.84398
lowerneck 4.57887 -9.43264 -19.8549
upperneck 3.78871 -14.5594 24.8439
head 3.74068 -7.46024 10.6529
rclavicle -2.34566e-014 -1.78906e-015
rhumerus -10.8336 43.8649 -77.9434
rradius 86.7155
rwrist 34.7438
rhand -16.7992 21.626
rfingers 7.12502
rthumb 9.42911 -8.14308
lclavicle -2.34566e-014 -1.78906e-015
lhumerus -185.285 -138.614 252.899
lradius 80.3934
lwrist -19.1919
lhand -14.4107 20.8494
lfingers 7.12502
lthumb 11.7331 50.5008
rfemur -16.0334 6.2122 16.8037
rtibia 22.4735
rfoot -12.7425 -12.8617
rtoes -14.3865
lfemur -20.8695 -13.8085 -15.7336
ltibia 25.7172
lfoot -12.1974 4.55805
ltoes -20.9853
3175
root 0.270461 17.3069 -0.670643 8.14448 5.67521 0.106841
lowerback 10.9727 -0.170242 -2.4213
upperback 5.19984 -0.422468 1.4089
thorax -0.700642 -0.26063 2.87221
lowerneck 4.61498 -9.43085 -19.7886
upperneck 3.29952 -14.4859 24.9553
head 3.58255 -7.43605 10.6908
rclavicle 1.32192e-014 -6.95746e-015
rhumerus -8.47831 44.11 -76.2034
rradius 88.0012
rwrist 34.8221
rhand -16.8838 21.9451
rfingers 7.12502
rthumb 9.34745 -7.82768
lclavicle 1.32192e-014 -6.95746e-015
lhumerus -182.853 -137.801 251.18
lradius 81.5203
lwrist -19.0532
lhand -14.6838 20.7644
lfingers 7.12502
lthumb 11.4697 50.4307
rfemur -16.6823 6.05166 16.542
rtibia 22.7455
rfoot -12.717 -12.7923
rtoes -14.0307
lfemur -21.4524 -13.8099 -15.8099
ltibia 25.778
lfoot -12.0798 4.52503
ltoes -21.267
3176
root 0.26679 17.3031 -0.710471 8.43778 5.69908 0.0853137
lowerback 11.2984 -0.134237 -2.36357
upperback 5.30226 -0.374218 1.43147
thorax -0.774439 -0.235801 2.86039
lowerneck 4.61552 -9.44437 -19.7733
upperneck 2.91503 -14.4519 25.1222
head 3.47908 -7.42811 10.7517
rclavicle -1.67973e-014 8.15017e-015
rhumerus -6.15352 44.2429 -74.5076
rradius 89.1783
rwrist 34.9497
rhand -17.458 21.94
rfingers 7.12502
rthumb 8.79343 -7.85683
lclavicle -1.67973e-014 8.15017e-015
lhumerus -180.483 -137.136 249.457
lradius 82.6496
lwrist -18.9875
lhand -14.9585 20.5407
lfingers 7.12502
lthumb 11.2048 50.2215
rfemur -17.3079 6.02037 16.5095
rtibia 22.9808
rfoot -12.6329 -12.7683
rtoes -14.315
lfemur -22.0174 -13.6799 -15.6734
ltibia 25.8521
lfoot -11.9592 4.36783
ltoes -20.8019
